<svg width="695" height="662" viewBox="0 0 695 662" fill="none" xmlns="http://www.w3.org/2000/svg">
<path d="M1 662H695V-3.02792e-05H1V662Z" fill="#D8ECF7"/>
<path d="M340.536 540.049C337.812 540.049 335.075 539.914 332.33 539.633C302.593 536.598 277.225 517.255 255.909 496.455C251.394 492.05 246.962 487.531 242.531 483.002L377.207 465.313C384.358 464.373 389.389 457.857 388.442 450.759L343.965 117.18C343.095 110.66 337.484 105.916 331.033 105.916C330.461 105.916 329.883 105.953 329.301 106.028L298.924 110.019C301.586 107.829 304.316 105.72 307.138 103.723C329.565 87.8564 356.278 80.0064 382.761 80.0064C393.307 80.0064 403.817 81.2523 414.005 83.7308C437.972 89.5617 460.159 102.222 476.85 121.575C496.845 144.758 512.397 172.12 536.37 191.229C561.288 211.094 594.123 221.022 614.933 245.099C634.601 267.853 640.115 300.145 635.867 329.828C633.215 348.364 626.705 367.002 613.551 380.421C603.964 390.202 591.464 396.622 578.851 402.055C573.63 404.303 568.349 406.419 563.036 408.459C563.102 408.209 563.11 407.947 563.036 407.665C562.846 406.952 562.171 406.497 561.657 405.965C560.039 404.287 559.961 401.709 559.978 399.387C560.03 394.083 559.306 388.784 559.64 383.552C561.492 383.7 563.349 383.774 565.206 383.774C571.961 383.774 578.718 382.8 585.191 380.883C585.847 380.688 586.554 380.446 586.927 379.877C587.266 379.361 587.252 378.703 587.225 378.089C586.759 367.332 586.23 356.289 581.877 346.426C578.414 338.581 571.969 331.406 563.628 328.626C559.408 327.218 554.501 326.997 550.078 326.364C550.144 324.872 550.27 322.877 550.419 320.78C552.173 321.403 554.086 321.721 555.991 321.721C558.306 321.721 560.61 321.252 562.603 320.294C559.766 318.623 559.184 314.051 561.015 311.382C562.39 313.347 564.795 314.525 567.196 314.525C567.75 314.525 568.302 314.462 568.842 314.332C566.593 311.681 566.856 307.631 568.391 304.52C569.928 301.407 572.5 298.947 574.78 296.32C578.498 292.032 581.55 287.095 583.122 281.657C584.694 276.219 584.717 270.255 582.608 264.998C580.336 259.338 575.973 255.414 571.428 251.55C567.51 248.222 566.342 242.651 561.815 239.902C557.283 237.153 551.822 236.355 546.514 236.195C545.517 236.164 544.518 236.155 543.52 236.155C542.58 236.155 541.638 236.163 540.698 236.172C539.757 236.181 538.815 236.189 537.876 236.189C535.442 236.189 533.011 236.131 530.593 235.862C525.314 235.276 519.942 233.556 516.212 229.804C515.649 234.093 517.271 238.61 520.441 241.578C510.032 244.59 502.691 254.222 499.348 264.459C497.4 270.424 496.564 276.9 498.103 282.981C499.486 288.444 503 293.529 507.967 296.156C507.56 300.835 507.034 305.498 508.571 309.873C510.547 315.494 515.763 319.597 521.493 321.358C523.897 322.097 526.383 322.471 528.89 322.57C528.94 323.309 528.984 324.02 529.021 324.682C529.028 324.798 529.035 324.915 529.041 325.028C520.728 325.201 512.556 326.919 506.527 333.4C504.412 335.675 502.985 338.484 501.658 341.287C498.662 347.617 495.807 353.987 494.198 360.705C493.797 362.379 493.474 364.076 493.245 365.796C493.191 366.198 493.142 366.622 493.299 366.997C493.523 367.533 494.098 367.82 494.629 368.062C497.87 369.551 501.111 371.039 504.353 372.526C504.88 372.768 505.428 373.027 505.776 373.49C506.168 374.013 506.232 374.704 506.282 375.354C506.951 384.145 506.863 390.678 502.455 398.59C501.7 399.942 500.839 401.312 500.708 402.853C500.614 403.961 500.91 405.062 501.134 406.153C501.439 407.651 501.615 409.177 501.655 410.705C501.667 411.179 501.661 411.675 501.426 412.084C501.094 412.667 500.402 412.922 499.871 413.333C497.91 414.847 498.387 418.983 499.058 421.097C500.023 424.131 503.395 427.243 506.092 428.804C506.567 429.078 507.054 429.329 507.55 429.558C501.318 432.239 495.168 435.111 489.147 438.274C475.669 445.352 459.282 454.428 450.505 467.229C441.731 480.025 435.289 490.837 423.339 501.805C400.466 522.802 371.289 540.05 340.536 540.049ZM167.404 426.82C153.082 420.539 138.601 414.6 126.496 404.875C108.791 390.65 97.8804 369.518 91.6737 347.764C82.0391 314.001 83.3168 275.72 102.395 246.176C111.637 231.864 124.356 220.475 138.622 210.955L167.404 426.82Z" fill="#98CAE7"/>
<path d="M89.1045 379.399H633.896C634.08 379.399 634.23 379.25 634.23 379.068C634.23 378.885 634.08 378.737 633.896 378.737H89.1045C88.92 378.737 88.771 378.885 88.771 379.068C88.771 379.25 88.92 379.399 89.1045 379.399Z" fill="#4F4C4D"/>
<path d="M441.943 285.218H441.609C441.611 287.452 443.434 289.263 445.685 289.263C447.937 289.263 449.761 287.452 449.761 285.218C449.761 282.984 447.937 281.172 445.685 281.172C443.434 281.172 441.611 282.984 441.609 285.218H441.943H442.276C442.28 283.35 443.802 281.838 445.685 281.834C447.568 281.838 449.09 283.35 449.094 285.218C449.09 287.087 447.568 288.599 445.685 288.601C443.802 288.599 442.28 287.087 442.276 285.218H441.943Z" fill="#4F4C4D"/>
<path d="M120.619 103.468H120.285C120.286 105.701 122.11 107.513 124.361 107.513C126.612 107.513 128.436 105.701 128.437 103.468C128.436 101.233 126.612 99.4229 124.361 99.4229C122.11 99.4229 120.286 101.233 120.285 103.468H120.619H120.952C120.956 101.6 122.479 100.088 124.361 100.085C126.243 100.088 127.766 101.6 127.77 103.468C127.766 105.336 126.243 106.848 124.361 106.851C122.479 106.848 120.956 105.336 120.952 103.468H120.619Z" fill="#4F4C4D"/>
<path d="M124.361 416.002H124.027C124.028 418.235 125.852 420.048 128.103 420.048C130.354 420.048 132.178 418.235 132.179 416.002C132.178 413.768 130.354 411.957 128.103 411.957C125.852 411.957 124.028 413.768 124.027 416.002H124.361H124.694C124.698 414.134 126.22 412.622 128.103 412.619C129.985 412.622 131.508 414.134 131.512 416.002C131.508 417.87 129.985 419.382 128.103 419.386C126.22 419.382 124.698 417.87 124.694 416.002H124.361Z" fill="#4F4C4D"/>
<path d="M411.506 309.975L404.34 317.086C404.209 317.216 404.209 317.425 404.34 317.555C404.47 317.683 404.682 317.683 404.811 317.555L411.977 310.442C412.108 310.314 412.108 310.103 411.977 309.975C411.848 309.845 411.637 309.845 411.506 309.975Z" fill="#4F4C4D"/>
<path d="M404.34 310.442L411.506 317.555C411.637 317.683 411.848 317.683 411.977 317.555C412.108 317.425 412.108 317.216 411.977 317.086L404.811 309.975C404.682 309.845 404.47 309.845 404.34 309.975C404.209 310.103 404.209 310.314 404.34 310.442Z" fill="#4F4C4D"/>
<path d="M581.233 109.281L574.066 116.394C573.937 116.524 573.937 116.733 574.066 116.863C574.197 116.991 574.408 116.991 574.539 116.863L581.705 109.75C581.836 109.622 581.836 109.411 581.705 109.281C581.574 109.153 581.363 109.153 581.233 109.281Z" fill="#4F4C4D"/>
<path d="M574.066 109.75L581.233 116.863C581.363 116.991 581.574 116.991 581.705 116.863C581.836 116.733 581.836 116.524 581.705 116.394L574.539 109.281C574.408 109.153 574.197 109.153 574.066 109.281C573.937 109.411 573.937 109.622 574.066 109.75Z" fill="#4F4C4D"/>
<path d="M181.454 85.8822L174.289 92.9948C174.158 93.1232 174.158 93.3337 174.289 93.4621C174.419 93.5919 174.631 93.5919 174.76 93.4621L181.926 86.3509C182.057 86.2212 182.057 86.012 181.926 85.8822C181.796 85.7538 181.585 85.7538 181.454 85.8822Z" fill="#4F4C4D"/>
<path d="M174.289 86.3509L181.454 93.4621C181.585 93.5919 181.796 93.5919 181.926 93.4621C182.057 93.3337 182.057 93.1232 181.926 92.9948L174.76 85.8822C174.631 85.7538 174.419 85.7538 174.289 85.8822C174.158 86.012 174.158 86.2212 174.289 86.3509Z" fill="#4F4C4D"/>
<path d="M454.499 319.713C454.499 320.868 455.443 321.806 456.609 321.806C457.774 321.806 458.718 320.868 458.718 319.713C458.718 318.555 457.774 317.618 456.609 317.618C455.443 317.618 454.499 318.555 454.499 319.713Z" fill="#4F4C4D"/>
<path d="M381.131 127.064C381.131 128.22 382.076 129.157 383.24 129.157C384.406 129.157 385.351 128.22 385.351 127.064C385.351 125.907 384.406 124.969 383.24 124.969C382.076 124.969 381.131 125.907 381.131 127.064Z" fill="#4F4C4D"/>
<path d="M600.091 191.683C600.091 192.839 601.036 193.776 602.2 193.776C603.365 193.776 604.309 192.839 604.309 191.683C604.309 190.526 603.365 189.589 602.2 189.589C601.036 189.589 600.091 190.526 600.091 191.683Z" fill="#4F4C4D"/>
<path d="M104.894 182.275C104.894 183.432 105.838 184.369 107.004 184.369C108.169 184.369 109.114 183.432 109.114 182.275C109.114 181.119 108.169 180.182 107.004 180.182C105.838 180.182 104.894 181.119 104.894 182.275Z" fill="#4F4C4D"/>
<path d="M404.715 400.782C404.715 401.938 405.659 402.876 406.824 402.876C407.99 402.876 408.934 401.938 408.934 400.782C408.934 399.625 407.99 398.688 406.824 398.688C405.659 398.688 404.715 399.625 404.715 400.782Z" fill="#4F4C4D"/>
<path d="M189.009 490.031L377.207 465.313C384.358 464.373 389.389 457.857 388.441 450.759L343.965 117.18C343.017 110.082 336.453 105.09 329.301 106.028L141.104 130.747C133.951 131.687 128.922 138.201 129.868 145.301L174.347 478.88C175.292 485.978 181.857 490.971 189.009 490.031Z" fill="#0065E1"/>
<path d="M133.034 206.558L138.3 208.536L134.624 180.968L130.058 184.238L133.034 206.558Z" fill="#619DC8"/>
<path d="M149.153 124.726L147.159 129.952L174.938 126.304L171.641 121.772L149.153 124.726Z" fill="#619DC8"/>
<path d="M136.71 234.128L141.976 236.107L138.3 208.536L133.734 211.808L136.71 234.128Z" fill="#619DC8"/>
<path d="M204.36 144.471L208.337 149.332C210.565 152.056 214.056 153.434 217.559 152.975L261.303 147.229C264.805 146.769 267.816 144.536 269.253 141.331L271.819 135.61C273.255 132.406 276.265 130.173 279.769 129.713L323.101 124.023C328.665 123.291 333.772 127.175 334.508 132.696L375.556 440.557C376.293 446.079 372.379 451.147 366.816 451.878L195.52 474.376C189.957 475.108 184.85 471.223 184.114 465.701L143.065 157.84C142.33 152.319 146.243 147.251 151.806 146.52L195.138 140.828C198.641 140.369 202.134 141.749 204.36 144.471Z" fill="#D8E8F7"/>
<mask id="mask0_2_4" style="mask-type:luminance" maskUnits="userSpaceOnUse" x="142" y="123" width="234" height="352">
<path d="M204.36 144.471L208.337 149.332C210.565 152.056 214.056 153.434 217.559 152.975L261.303 147.229C264.805 146.769 267.816 144.536 269.253 141.331L271.819 135.61C273.255 132.406 276.265 130.173 279.769 129.713L323.101 124.023C328.665 123.291 333.772 127.175 334.508 132.696L375.556 440.557C376.293 446.079 372.379 451.147 366.816 451.878L195.52 474.376C189.957 475.108 184.85 471.223 184.114 465.701L143.065 157.84C142.33 152.319 146.243 147.251 151.806 146.52L195.138 140.828C198.641 140.369 202.134 141.749 204.36 144.471Z" fill="white"/>
</mask>
<g mask="url(#mask0_2_4)">
<path d="M358.813 314.987L271.727 271.707C273.105 271.507 274.469 271.209 275.805 270.799C281.536 269.037 286.752 264.935 288.728 259.313C291.02 252.795 288.726 245.634 289.077 238.738C289.269 234.928 290.277 231.198 290.599 227.395C290.717 226.028 290.738 224.651 290.666 223.279C291.038 222.912 291.39 222.506 291.723 222.05C292.87 220.478 293.697 218.701 294.224 216.829L349.381 244.239L358.813 314.987ZM223.975 247.976L150.195 211.309L143.066 157.84C143.005 157.388 142.976 156.937 142.977 156.494C142.983 151.517 146.699 147.191 151.806 146.52L152.555 146.422L241.035 190.395C236.331 192.777 232.34 196.929 231.218 202.041C226.039 202.128 221.399 205.808 219.066 210.397C216.732 214.986 216.384 220.335 216.808 225.457C217.212 230.329 218.275 235.149 219.963 239.743C221.014 242.608 222.324 245.408 223.975 247.976Z" fill="#FFFFFC"/>
</g>
<path d="M254.401 140.82C252.756 140.82 251.325 139.61 251.104 137.949C250.862 136.137 252.144 134.476 253.969 134.236C254.117 134.218 254.264 134.207 254.409 134.207C256.055 134.207 257.485 135.417 257.708 137.08C257.95 138.89 256.666 140.552 254.841 140.791C254.695 140.811 254.547 140.82 254.401 140.82Z" fill="#F7FBE9"/>
<path d="M243.941 138.555L216.593 142.147C216.41 142.171 216.282 142.336 216.306 142.518C216.33 142.699 216.498 142.826 216.681 142.802L244.029 139.21C244.212 139.187 244.34 139.021 244.316 138.84C244.292 138.658 244.124 138.531 243.941 138.555Z" fill="#4F4C4D"/>
<mask id="mask1_2_4" style="mask-type:luminance" maskUnits="userSpaceOnUse" x="100" y="123" width="276" height="352">
<path d="M204.36 144.471L208.337 149.332C210.565 152.056 214.056 153.434 217.559 152.975L261.303 147.229C264.805 146.769 267.816 144.536 269.253 141.331L271.819 135.61C273.255 132.406 276.265 130.173 279.769 129.713L323.101 124.023C328.665 123.291 333.772 127.175 334.508 132.696L375.556 440.557C376.293 446.079 372.379 451.147 366.816 451.878L195.52 474.376C189.957 475.108 184.85 471.223 184.114 465.701L184.566 396.058C184.566 396.058 108.034 352.227 101.077 302.951C94.1186 253.675 157.765 228.947 157.765 228.947L143.065 157.84C142.33 152.319 146.243 147.251 151.806 146.52L195.138 140.828C198.641 140.369 202.134 141.749 204.36 144.471Z" fill="white"/>
</mask>
<g mask="url(#mask1_2_4)">
<path d="M279.168 356.333L257.123 357.608L235.06 356.663C235.06 356.663 221.227 386.379 221.397 408.726C221.568 431.074 225.125 557.058 225.125 557.058C225.125 557.058 226.473 562.391 236.239 563.496C246.181 564.618 251.529 560.053 251.529 560.053L259.11 443.703L265.788 559.947C265.788 559.947 271.203 564.432 281.128 563.159C290.876 561.909 292.143 556.556 292.143 556.556C292.143 556.556 293.79 430.535 293.62 408.188C293.45 385.84 279.168 356.333 279.168 356.333Z" fill="#EAA458"/>
<path d="M260.22 444.951C261.239 431.699 262.257 418.447 263.276 405.197C263.427 403.221 263.606 401.221 264.546 399.586C265.698 397.569 267.883 396.294 270.028 395.104C273.12 393.384 276.214 391.664 279.306 389.943C279.467 389.853 279.523 389.652 279.434 389.493C279.343 389.333 279.14 389.276 278.98 389.366C275.887 391.087 272.794 392.805 269.701 394.527C267.557 395.723 265.248 397.034 263.967 399.259C262.932 401.068 262.765 403.17 262.611 405.145C261.593 418.397 260.574 431.649 259.555 444.901C259.54 445.084 259.679 445.242 259.861 445.256C260.045 445.27 260.206 445.134 260.22 444.951Z" fill="#4F4C4D"/>
<path d="M271.186 393.854C271.911 388.246 272.273 382.592 272.273 376.939C272.273 369.708 271.681 362.478 270.497 355.344C270.468 355.164 270.296 355.042 270.114 355.071C269.932 355.102 269.809 355.271 269.84 355.451C271.016 362.551 271.606 369.744 271.606 376.939C271.606 382.564 271.246 388.19 270.524 393.771C270.5 393.952 270.629 394.117 270.812 394.14C270.995 394.164 271.162 394.035 271.186 393.854Z" fill="#4F4C4D"/>
<path d="M266.698 396.874C267.424 391.266 267.787 385.612 267.787 379.957C267.787 372.728 267.193 365.498 266.01 358.364C265.98 358.184 265.808 358.062 265.627 358.091C265.445 358.122 265.321 358.291 265.352 358.473C266.53 365.569 267.12 372.764 267.12 379.957C267.12 385.584 266.758 391.21 266.036 396.789C266.014 396.971 266.142 397.136 266.325 397.16C266.507 397.183 266.675 397.055 266.698 396.874Z" fill="#4F4C4D"/>
<path d="M227.983 382.06C230.026 381.612 231.655 380.213 233.033 378.774C237.131 374.484 239.983 369.042 241.171 363.251C241.207 363.072 241.091 362.898 240.911 362.862C240.729 362.825 240.553 362.94 240.517 363.12C239.355 368.787 236.56 374.121 232.549 378.318C231.204 379.728 229.661 381.019 227.84 381.414C227.66 381.453 227.547 381.629 227.585 381.808C227.625 381.987 227.803 382.1 227.983 382.06Z" fill="#4F4C4D"/>
<path d="M280.113 504.645C280.112 504.641 279.617 503.375 278.84 501.302C276.514 495.086 271.682 481.615 270.272 473.58C270.24 473.399 270.066 473.278 269.885 473.31C269.704 473.342 269.582 473.512 269.614 473.692C271.523 484.545 279.489 504.873 279.491 504.885C279.558 505.054 279.751 505.139 279.923 505.073C280.094 505.006 280.18 504.814 280.113 504.645Z" fill="#4F4C4D"/>
<path d="M259.507 277.702C259.507 277.702 240.341 275.566 228.982 279.327C217.622 283.088 226.018 356.908 226.018 356.908L217.551 430.749C217.551 430.749 236.015 440.304 255.391 442.189L261.938 429.997L267.517 442.244C286.367 440.476 300.235 429.185 300.236 429.184C300.664 428.802 294.439 394.492 293.274 364.048C291.929 328.933 292.925 298.261 293.085 296.349C293.434 292.156 293.227 284.527 289.754 281.474C283.122 275.646 259.507 277.702 259.507 277.702Z" fill="white"/>
<path d="M257.963 278.286L243.206 278.397L261.938 311.046L272.91 279.124L257.963 278.286Z" fill="#619DC8"/>
<path d="M254.576 298.09L261.781 292.042L266.759 296.603C266.894 296.728 267.106 296.719 267.23 296.585C267.356 296.451 267.348 296.241 267.212 296.118L262.017 291.358C261.893 291.245 261.704 291.24 261.575 291.349L254.145 297.585C254.004 297.702 253.986 297.912 254.105 298.051C254.224 298.191 254.435 298.208 254.576 298.09Z" fill="#4F4C4D"/>
<path d="M261.458 291.604L261.605 311.048C261.606 311.231 261.757 311.378 261.941 311.377C262.125 311.375 262.273 311.226 262.272 311.043L262.124 291.599C262.122 291.416 261.973 291.269 261.789 291.27C261.605 291.272 261.455 291.421 261.458 291.604Z" fill="#4F4C4D"/>
<path d="M261.605 311.058C261.605 311.064 261.698 313.428 261.846 317.282C262.292 328.842 263.238 353.759 263.671 368.115C263.729 369.999 263.754 372.114 263.754 374.395C263.754 384.82 263.218 398.718 262.68 410.007C262.411 415.651 262.142 420.644 261.941 424.225C261.74 427.807 261.606 429.97 261.605 429.975C261.594 430.158 261.734 430.316 261.918 430.326C262.101 430.338 262.26 430.199 262.27 430.016C262.27 430.012 264.421 395.285 264.421 374.395C264.421 372.109 264.396 369.989 264.338 368.096C263.759 348.948 262.272 311.032 262.272 311.032C262.264 310.85 262.109 310.708 261.925 310.715C261.741 310.721 261.598 310.876 261.605 311.058Z" fill="#4F4C4D"/>
<path d="M251.032 397.524L251.094 397.2L232.975 393.727L232.696 393.8L232.578 394.063L232.749 398.918C232.754 399.071 232.865 399.2 233.016 399.231L251.004 402.866L251.281 402.798L251.402 402.539L251.365 397.521C251.364 397.364 251.252 397.229 251.094 397.2L251.032 397.524L250.698 397.527L250.733 402.137L233.407 398.634L233.26 394.455L250.969 397.85L251.032 397.524Z" fill="#4F4C4D"/>
<path d="M273.687 396.401L273.755 396.724L291.41 393.066L291.326 397.247L274.055 401.006L274.019 396.399L273.687 396.401L273.353 396.403L273.391 401.419L273.516 401.676L273.796 401.741L291.727 397.839C291.877 397.806 291.985 397.675 291.988 397.521L292.085 392.664L291.965 392.403L291.684 392.334L273.618 396.077C273.463 396.109 273.352 396.245 273.353 396.403L273.687 396.401Z" fill="#4F4C4D"/>
<path d="M264.301 359.472C263.168 357.97 261.524 354.501 259.736 350.191C257.048 343.721 254.001 335.321 251.628 328.542C250.441 325.153 249.423 322.169 248.701 320.032C247.978 317.893 247.555 316.608 247.554 316.605L247.236 316.708L247.471 316.943L251.892 312.601C251.992 312.503 252.019 312.354 251.961 312.228C251.955 312.217 240.947 288.35 233.666 278.095C233.559 277.946 233.351 277.91 233.2 278.016C233.049 278.12 233.015 278.327 233.12 278.477C236.722 283.545 241.288 292.062 244.945 299.299C246.774 302.919 248.376 306.221 249.522 308.617C250.667 311.013 251.353 312.499 251.354 312.503L251.657 312.366L251.422 312.13L247.002 316.473C246.912 316.561 246.88 316.691 246.92 316.81C246.92 316.813 249.946 325.991 253.56 335.954C255.367 340.936 257.321 346.114 259.12 350.443C260.922 354.776 262.549 358.242 263.766 359.868C263.877 360.014 264.085 360.044 264.233 359.936C264.381 359.826 264.412 359.619 264.301 359.472Z" fill="#4F4C4D"/>
<path d="M264.32 359.84C265.55 357.792 266.933 353.998 268.344 349.419C272.569 335.696 276.961 315.015 276.962 315.011C276.99 314.873 276.929 314.732 276.808 314.66L271.611 311.521L271.438 311.804L271.75 311.921C271.751 311.917 272.292 310.492 273.167 308.195C275.791 301.302 281.407 286.586 284.343 279.144C284.41 278.974 284.326 278.783 284.153 278.715C283.981 278.649 283.788 278.732 283.721 278.903C279.803 288.834 271.126 311.687 271.126 311.688C271.07 311.836 271.128 312.004 271.264 312.088L276.462 315.226L276.635 314.942L276.308 314.875C276.307 314.88 275.821 317.169 275.014 320.739C273.806 326.093 271.878 334.312 269.805 341.933C267.737 349.548 265.503 356.594 263.747 359.5C263.653 359.658 263.705 359.86 263.862 359.954C264.021 360.048 264.225 359.997 264.32 359.84Z" fill="#4F4C4D"/>
<path d="M257.963 278.286L243.206 278.397L261.792 291.601L272.91 279.124L257.963 278.286Z" fill="#F89B6A"/>
<path d="M279.519 190.541C272.562 187.403 264.726 186.696 257.091 186.976C251.7 187.176 246.212 187.878 241.365 190.231C236.519 192.583 232.366 196.81 231.218 202.041C226.039 202.128 221.399 205.808 219.066 210.397C216.732 214.986 216.384 220.334 216.808 225.457C217.212 230.329 218.275 235.149 219.963 239.743C221.753 244.621 224.293 249.309 227.988 252.984C231.682 256.661 236.618 259.261 241.843 259.521C247.308 259.791 252.678 257.494 256.919 254.061C266.526 246.28 269.183 232.086 281.469 227.587C285.326 226.175 289.156 225.574 291.723 222.05C295.43 216.964 295.805 209.753 293.423 204.076C290.862 197.966 285.514 193.243 279.519 190.541Z" fill="#57301F"/>
<path d="M247.27 277.537C247.27 281.283 248.993 284.697 257.708 284.697C266.422 284.697 268.146 281.404 268.146 277.537C268.146 273.669 269.428 258.847 269.428 258.847H245.988C245.988 258.847 247.27 273.79 247.27 277.537Z" fill="#F89B6A"/>
</g>
<mask id="mask2_2_4" style="mask-type:luminance" maskUnits="userSpaceOnUse" x="100" y="123" width="276" height="352">
<path d="M204.36 144.471L208.337 149.332C210.565 152.056 214.056 153.434 217.559 152.975L261.303 147.229C264.805 146.769 267.816 144.536 269.253 141.331L271.819 135.61C273.255 132.406 276.265 130.173 279.769 129.713L323.101 124.023C328.665 123.291 333.772 127.175 334.508 132.696L375.556 440.557C376.293 446.079 372.379 451.147 366.816 451.878L195.52 474.376C189.957 475.108 184.85 471.223 184.114 465.701L184.566 396.058C184.566 396.058 108.034 352.227 101.077 302.951C94.1186 253.675 157.765 228.947 157.765 228.947L143.065 157.84C142.33 152.319 146.243 147.251 151.806 146.52L195.138 140.828C198.641 140.369 202.134 141.749 204.36 144.471Z" fill="white"/>
</mask>
<g mask="url(#mask2_2_4)">
<mask id="mask3_2_4" style="mask-type:luminance" maskUnits="userSpaceOnUse" x="245" y="258" width="25" height="27">
<path d="M247.27 277.537C247.27 281.283 248.993 284.697 257.708 284.697C266.422 284.697 268.145 281.404 268.145 277.537C268.145 273.669 269.427 258.847 269.427 258.847H245.988C245.988 258.847 247.27 273.79 247.27 277.537Z" fill="white"/>
</mask>
<g mask="url(#mask3_2_4)">
<path d="M263.75 274.609C256.901 274.609 250.854 271.344 247.238 266.363C250.47 268.653 254.077 270.35 257.994 271.103C260.947 271.673 263.975 272.037 266.985 272.037C267.46 272.037 267.935 272.029 268.408 272.009C268.359 272.749 268.315 273.459 268.278 274.121C266.822 274.44 265.307 274.609 263.75 274.609Z" fill="#F57745"/>
</g>
</g>
<mask id="mask4_2_4" style="mask-type:luminance" maskUnits="userSpaceOnUse" x="100" y="123" width="276" height="352">
<path d="M204.36 144.471L208.337 149.332C210.565 152.056 214.056 153.434 217.559 152.975L261.303 147.229C264.805 146.769 267.816 144.536 269.253 141.331L271.819 135.61C273.255 132.406 276.265 130.173 279.769 129.713L323.101 124.023C328.665 123.291 333.772 127.175 334.508 132.696L375.556 440.557C376.293 446.079 372.379 451.147 366.816 451.878L195.52 474.376C189.957 475.108 184.85 471.223 184.114 465.701L184.566 396.058C184.566 396.058 108.034 352.227 101.077 302.951C94.1186 253.675 157.765 228.947 157.765 228.947L143.065 157.84C142.33 152.319 146.243 147.251 151.806 146.52L195.138 140.828C198.641 140.369 202.134 141.749 204.36 144.471Z" fill="white"/>
</mask>
<g mask="url(#mask4_2_4)">
<path d="M230.275 232.551C230.153 223.249 232.71 213.88 237.957 206.713C243.005 199.818 250.755 195.742 259.955 195.49C269.154 195.237 276.281 198.116 281.978 203.627C288.255 209.699 291.337 218.726 290.599 227.395C290.276 231.198 289.269 234.928 289.077 238.738C288.726 245.633 291.02 252.795 288.728 259.313C286.752 264.935 281.536 269.036 275.805 270.799C270.074 272.56 263.883 272.239 257.994 271.103C249.65 269.496 242.71 263.611 237.8 256.837C232.902 250.079 230.391 241.345 230.275 232.551Z" fill="#F89B6A"/>
<path d="M244.231 249.439C244.231 252.804 246.98 255.533 250.37 255.533C253.761 255.533 256.51 252.804 256.51 249.439C256.51 246.073 253.761 243.346 250.37 243.346C246.98 243.346 244.231 246.073 244.231 249.439Z" fill="#F57E66"/>
<path d="M276.579 249.439C276.579 252.804 279.328 255.533 282.719 255.533C286.109 255.533 288.858 252.804 288.858 249.439C288.858 246.073 286.109 243.346 282.719 243.346C279.328 243.346 276.579 246.073 276.579 249.439Z" fill="#F57E66"/>
<path d="M271.012 232.636C270.94 233.291 270.905 233.951 270.905 234.61C270.905 237.349 271.515 240.086 272.692 242.566C273.463 244.178 274.431 245.734 274.423 247.34L274.417 247.58C274.351 248.721 273.74 249.837 272.81 250.514C272.135 251.006 271.288 251.271 270.448 251.271C270.13 251.271 269.814 251.234 269.509 251.157C269.33 251.112 269.149 251.221 269.105 251.398C269.059 251.576 269.167 251.754 269.346 251.799C269.708 251.889 270.077 251.933 270.448 251.933C271.428 251.932 272.408 251.627 273.205 251.047C274.299 250.248 275.002 248.965 275.082 247.618L275.09 247.34C275.084 245.471 274.03 243.847 273.295 242.284C272.161 239.895 271.572 237.251 271.572 234.61C271.572 233.974 271.606 233.339 271.675 232.707C271.695 232.525 271.562 232.362 271.379 232.342C271.196 232.323 271.031 232.454 271.012 232.636Z" fill="#4F4C4D"/>
<path d="M267.494 262.316C267.233 262.333 266.971 262.341 266.709 262.341C265.129 262.341 263.562 262.04 262.246 261.482C262.077 261.41 261.881 261.487 261.809 261.655C261.737 261.823 261.814 262.018 261.984 262.091C263.396 262.688 265.045 263.003 266.709 263.003C266.985 263.003 267.262 262.994 267.537 262.977C267.721 262.965 267.861 262.807 267.849 262.626C267.837 262.443 267.679 262.304 267.494 262.316Z" fill="#4F4C4D"/>
<path d="M259.02 254.805C258.535 257.4 261.347 259.908 265.299 260.405C269.25 260.902 272.846 259.202 273.329 256.607C273.814 254.012 270.532 254.028 266.581 253.531C262.628 253.033 259.504 252.21 259.02 254.805Z" fill="#DE373C"/>
</g>
<mask id="mask5_2_4" style="mask-type:luminance" maskUnits="userSpaceOnUse" x="0" y="139" width="277" height="352">
<path d="M104.802 160.424L108.778 165.285C111.006 168.009 114.497 169.387 118 168.928L161.745 163.181C165.247 162.722 168.257 160.488 169.694 157.284L172.261 151.563C173.696 148.359 176.707 146.126 180.21 145.666L223.542 139.976C229.106 139.243 234.213 143.128 234.949 148.649L275.998 456.51C276.734 462.032 272.82 467.1 267.258 467.831L95.9612 490.328C90.3985 491.061 85.2919 487.176 84.5555 481.654L85.0078 412.011C85.0078 412.011 8.47525 368.18 1.51818 318.904C-5.43997 269.628 58.2069 244.9 58.2069 244.9L43.5069 173.793C42.7711 168.272 46.6839 163.204 52.2471 162.473L95.5797 156.781C99.0828 156.322 102.575 157.701 104.802 160.424Z" fill="white"/>
</mask>
<g mask="url(#mask5_2_4)">
<mask id="mask6_2_4" style="mask-type:luminance" maskUnits="userSpaceOnUse" x="159" y="268" width="15" height="9">
<path d="M159.461 270.758C158.977 273.353 161.787 275.86 165.74 276.358C169.691 276.855 173.288 275.155 173.771 272.558C174.255 269.965 170.973 269.981 167.022 269.484C163.069 268.986 159.945 268.163 159.461 270.758Z" fill="white"/>
</mask>
<g mask="url(#mask6_2_4)">
<path d="M153.182 272.889C152.131 275.517 155.411 278.822 160.511 280.269C165.611 281.718 170.597 280.76 171.65 278.134C172.702 275.506 169.421 272.202 164.321 270.754C159.222 269.307 154.234 270.262 153.182 272.889Z" fill="#F2584C"/>
<path d="M159.816 268.574C159.502 270.342 162.588 271.334 166.526 271.804C170.465 272.274 173.639 272.425 173.952 270.656C174.266 268.888 171.188 268.198 167.25 267.728C163.311 267.258 160.129 266.807 159.816 268.574Z" fill="white"/>
</g>
</g>
<mask id="mask7_2_4" style="mask-type:luminance" maskUnits="userSpaceOnUse" x="100" y="123" width="276" height="352">
<path d="M204.36 144.471L208.337 149.332C210.565 152.056 214.056 153.434 217.559 152.975L261.303 147.229C264.805 146.769 267.816 144.536 269.253 141.331L271.819 135.61C273.255 132.406 276.265 130.173 279.769 129.713L323.101 124.023C328.665 123.291 333.772 127.175 334.508 132.696L375.556 440.557C376.293 446.079 372.379 451.147 366.816 451.878L195.52 474.376C189.957 475.108 184.85 471.223 184.114 465.701L184.566 396.058C184.566 396.058 108.034 352.227 101.077 302.951C94.1186 253.675 157.765 228.947 157.765 228.947L143.065 157.84C142.33 152.319 146.243 147.251 151.806 146.52L195.138 140.828C198.641 140.369 202.134 141.749 204.36 144.471Z" fill="white"/>
</mask>
<g mask="url(#mask7_2_4)">
<path d="M259.02 254.805L258.691 254.745C258.651 254.96 258.631 255.176 258.631 255.389C258.633 256.706 259.372 257.932 260.552 258.874C261.736 259.818 263.374 260.495 265.256 260.734C265.734 260.793 266.206 260.822 266.669 260.822C268.412 260.821 270.024 260.413 271.275 259.694C272.522 258.977 273.421 257.933 273.658 256.666C273.694 256.477 273.711 256.297 273.711 256.125C273.716 255.516 273.469 255.002 273.055 254.645C272.434 254.11 271.515 253.862 270.408 253.672C269.301 253.486 267.999 253.376 266.622 253.203C264.806 252.975 263.156 252.672 261.813 252.671C261.03 252.672 260.342 252.771 259.78 253.093C259.217 253.413 258.829 253.977 258.691 254.745L259.02 254.805L259.348 254.866C259.47 254.236 259.725 253.898 260.116 253.665C260.511 253.435 261.087 253.331 261.813 253.333C263.056 253.331 264.704 253.628 266.538 253.86C268.394 254.091 270.09 254.214 271.278 254.529C271.87 254.684 272.328 254.888 272.613 255.141C272.897 255.397 273.039 255.677 273.044 256.125C273.044 256.252 273.031 256.392 273.003 256.546C272.812 257.571 272.071 258.47 270.94 259.121C269.812 259.773 268.307 260.16 266.669 260.16C266.234 260.16 265.79 260.133 265.34 260.077C263.568 259.855 262.04 259.212 260.97 258.359C259.899 257.501 259.297 256.449 259.298 255.389C259.298 255.215 259.314 255.041 259.348 254.866L259.02 254.805Z" fill="#4F4C4D"/>
<path d="M255.391 239.187C255.391 240.815 256.722 242.137 258.363 242.137C260.004 242.137 261.334 240.815 261.334 239.187C261.334 237.558 260.004 236.238 258.363 236.238C256.722 236.238 255.391 237.558 255.391 239.187Z" fill="#2B2422"/>
<path d="M274.757 239.187C274.757 240.815 276.087 242.137 277.729 242.137C279.37 242.137 280.7 240.815 280.7 239.187C280.7 237.558 279.37 236.238 277.729 236.238C276.087 236.238 274.757 237.558 274.757 239.187Z" fill="#2B2422"/>
<path d="M257.013 224.077C260.935 222.669 263.706 224.863 264.034 227.021C264.034 227.021 261.597 226.222 257.894 226.777C254.189 227.333 251.182 228.947 251.182 228.947C251.182 228.947 253.09 225.486 257.013 224.077Z" fill="#57301F"/>
<path d="M280.45 224.077C276.528 222.669 273.759 224.863 273.431 227.021C273.431 227.021 275.867 226.222 279.571 226.777C283.274 227.333 286.281 228.947 286.281 228.947C286.281 228.947 284.374 225.486 280.45 224.077Z" fill="#57301F"/>
<path d="M240.429 239.534C241.672 236.744 241.488 233.569 241.73 230.528C242.027 226.809 243.004 223.145 244.598 219.766C246.393 215.964 249.567 212.193 253.796 212.036C255.89 211.958 257.894 212.792 259.859 213.517C262.735 214.575 265.688 215.428 268.688 216.062C272.47 216.86 276.904 217.144 279.709 214.501C280.754 213.517 281.416 212.16 282.785 211.562C283.74 211.145 284.828 211.073 285.85 211.28C286.661 211.442 287.426 211.772 288.209 212.038C288.402 212.103 288.617 212.165 288.806 212.086C289.188 211.923 289.14 211.375 289.013 210.983C285.157 199.068 270.831 191.105 258.585 191.956C247.478 192.729 236.905 203.374 231.721 213.154C228.279 219.647 227.344 227.37 228.913 234.522C229.477 237.09 230.415 241.92 233.021 243.29C235.864 244.785 239.307 242.053 240.429 239.534Z" fill="#57301F"/>
<path d="M225.015 243.233C227.37 249.522 233.147 253.281 236.043 251.883C238.292 250.797 238.645 246.611 237.335 241.586C236.027 236.563 232.243 230.172 228.427 231.126C224.61 232.081 222.659 236.944 225.015 243.233Z" fill="#F89B6A"/>
<path d="M231.805 247.47C230.117 246.771 228.646 244.336 227.877 242.779C226.977 240.954 226.487 238.925 226.509 236.891C226.518 235.974 226.739 234.557 227.72 234.557C227.876 234.557 228.051 234.593 228.247 234.672C230.138 235.433 231.631 236.957 232.754 238.649C234.263 240.923 235.196 243.569 235.446 246.281C235.046 245.99 234.55 245.836 234.054 245.836C233.794 245.836 233.535 245.878 233.289 245.965C232.522 246.235 232.178 246.816 231.805 247.47Z" fill="#F57745"/>
<path d="M228.982 279.327C228.982 279.327 217.143 282.196 213.375 290.471C209.608 298.746 201.399 332.561 201.399 332.561L192.753 318.978C192.753 318.978 185.638 318.427 180.234 322.125C174.831 325.823 176.122 329.53 176.122 329.53C176.122 329.53 197.215 374.412 212.474 361.818C226.507 350.216 235.969 315.426 235.969 315.426L228.982 279.327Z" fill="white"/>
<path d="M179.467 336.396C179.477 336.396 179.991 336.455 180.845 336.455C182.608 336.453 185.823 336.212 189.033 334.708C192.241 333.207 195.439 330.416 197.087 325.393C197.145 325.218 197.049 325.031 196.874 324.974C196.699 324.919 196.51 325.013 196.454 325.186C194.856 330.035 191.823 332.661 188.747 334.108C185.671 335.553 182.547 335.793 180.845 335.793C180.432 335.793 180.104 335.778 179.88 335.765C179.656 335.752 179.541 335.738 179.541 335.738C179.358 335.717 179.193 335.848 179.173 336.03C179.152 336.211 179.284 336.375 179.467 336.396Z" fill="#4F4C4D"/>
<path d="M197.525 327.093C197.526 327.094 197.948 327.643 198.659 328.581C200.793 331.39 205.525 337.659 209.22 342.856C209.325 343.006 209.534 343.04 209.684 342.936C209.835 342.83 209.871 342.623 209.764 342.474C204.827 335.532 198.057 326.693 198.056 326.691C197.945 326.546 197.736 326.518 197.589 326.628C197.442 326.739 197.414 326.947 197.525 327.093Z" fill="#4F4C4D"/>
<path d="M182.269 332.043C182.696 332.795 182.629 333.636 182.118 333.922C181.608 334.209 180.847 333.83 180.419 333.078C179.992 332.326 180.059 331.484 180.57 331.198C181.081 330.912 181.841 331.29 182.269 332.043Z" fill="#4F4C4D"/>
<path d="M218.614 289.212C218.614 289.213 218.711 289.349 218.89 289.618C220.146 291.506 225.251 299.756 226.175 309.825C226.193 310.008 226.355 310.141 226.538 310.124C226.722 310.108 226.857 309.947 226.84 309.765C225.756 298.045 219.172 288.854 219.157 288.829C219.05 288.679 218.842 288.645 218.693 288.751C218.542 288.857 218.507 289.063 218.614 289.212Z" fill="#4F4C4D"/>
<path d="M180.222 328.185C180.222 328.185 178.311 324.388 177.491 322.743C175.911 319.575 173.725 320.049 170.178 319.913C166.741 319.781 163.454 318.628 160.363 317.206C158.818 316.494 157.301 315.717 155.815 314.9C154.086 313.951 152.335 313.033 150.675 311.963C149.081 310.934 147.398 309.886 146.15 308.439C145.427 307.601 144.435 306.142 144.934 304.991C145.013 304.81 145.321 304.577 145.287 304.369C145.248 304.125 144.593 303.667 144.443 303.369C144.037 302.564 144.058 301.518 144.615 300.785C144.163 300.413 143.729 299.915 143.751 299.332C143.774 298.73 144.301 298.24 144.881 298.061C145.483 297.873 146.211 298.118 146.757 297.796C147.46 297.385 147.583 296.649 148.558 296.57C149.351 296.507 150.118 296.827 150.848 297.142C153.194 298.155 155.567 299.106 157.981 299.944C159.541 300.487 161.064 301.132 162.634 301.647C163.599 301.963 164.776 302.526 165.804 302.424C164.024 300.12 160.797 297.301 161.095 294.116C161.134 293.697 161.257 293.248 161.598 293.001C162.128 292.613 162.88 292.895 163.433 293.247C165.307 294.441 166.183 296.441 167.871 297.82C169.551 299.192 171.508 300.178 173.351 301.308C174.785 302.187 176.194 303.182 177.305 304.454C178.258 305.542 178.775 306.825 179.764 307.872C180.902 309.077 181.74 310.699 183.011 311.759C184.931 313.364 190.963 322.947 190.963 322.947C190.963 322.947 188.065 328.597 180.222 328.185Z" fill="#F89B6A"/>
<path d="M158.822 302.836C158.423 303.903 156.495 310.006 156.209 311.108C156.163 311.284 156.271 311.464 156.449 311.51C156.628 311.555 156.809 311.448 156.855 311.272C157.122 310.235 159.069 304.07 159.447 303.067C159.512 302.895 159.424 302.706 159.252 302.641C159.079 302.577 158.887 302.665 158.822 302.836Z" fill="#4F4C4D"/>
<path d="M158.682 303.664C154.722 302.509 149.89 300.415 146.454 298.166C146.3 298.065 146.093 298.108 145.992 298.261C145.89 298.413 145.933 298.619 146.087 298.719C149.602 301.018 154.466 303.122 158.493 304.3C158.67 304.352 158.856 304.251 158.908 304.076C158.96 303.9 158.859 303.716 158.682 303.664Z" fill="#4F4C4D"/>
<path d="M157.876 306.69C154.566 305.538 148.129 302.575 145.191 300.697C145.036 300.598 144.83 300.642 144.73 300.797C144.63 300.95 144.675 301.154 144.83 301.253C147.857 303.184 154.273 306.134 157.655 307.313C157.829 307.374 158.019 307.284 158.08 307.111C158.141 306.939 158.05 306.749 157.876 306.69Z" fill="#4F4C4D"/>
<path d="M157.064 309.487C154.533 308.489 148.205 305.548 145.883 304.165C145.725 304.071 145.52 304.123 145.425 304.279C145.331 304.436 145.382 304.639 145.54 304.733C147.938 306.158 154.234 309.081 156.817 310.103C156.988 310.171 157.182 310.087 157.25 309.918C157.318 309.748 157.235 309.555 157.064 309.487Z" fill="#4F4C4D"/>
<path d="M159.707 311.812C161.764 311.137 163.932 310.799 166.101 310.799C168.159 310.799 170.218 311.104 172.18 311.713C172.356 311.769 172.543 311.671 172.599 311.496C172.654 311.322 172.555 311.136 172.38 311.081C170.35 310.451 168.225 310.137 166.101 310.137C163.863 310.137 161.624 310.487 159.497 311.183C159.323 311.24 159.228 311.428 159.285 311.602C159.343 311.775 159.531 311.869 159.707 311.812Z" fill="#4F4C4D"/>
<path d="M162.533 327.377L124.162 328.928C121.745 329.026 119.706 327.16 119.608 324.761L117.474 272.757C117.375 270.358 119.255 268.335 121.672 268.237L160.043 266.686C162.461 266.588 164.499 268.454 164.598 270.853L166.731 322.857C166.83 325.256 164.95 327.279 162.533 327.377Z" fill="#D08753"/>
<path d="M124.018 269.522L157.812 268.157L159.973 320.855L126.179 322.222L124.018 269.522Z" fill="white"/>
<path d="M151.382 261.981L147.96 262.12L147.813 258.521L133.193 259.113L133.341 262.71L129.919 262.848L127.052 270.853L154.896 269.728L151.382 261.981Z" fill="#CECDCD"/>
<path d="M163.433 293.247C162.879 292.895 162.128 292.613 161.598 293.001C161.257 293.248 161.134 293.697 161.095 294.116C160.81 297.16 163.74 299.866 165.554 302.11L167.707 300.595L165.258 294.906C164.728 294.289 164.156 293.708 163.433 293.247Z" fill="#F89B6A"/>
<path d="M129.317 276.692L154.701 275.664C154.885 275.658 155.028 275.503 155.02 275.32C155.013 275.138 154.858 274.996 154.674 275.004L129.29 276.03C129.106 276.038 128.963 276.191 128.97 276.374C128.978 276.557 129.133 276.699 129.317 276.692Z" fill="#4F4C4D"/>
<path d="M129.407 281.041L154.792 280.015C154.976 280.007 155.118 279.854 155.111 279.671C155.104 279.488 154.948 279.346 154.765 279.353L129.38 280.381C129.196 280.387 129.053 280.542 129.06 280.725C129.068 280.907 129.223 281.049 129.407 281.041Z" fill="#4F4C4D"/>
<path d="M129.498 285.392L154.881 284.366C155.065 284.358 155.208 284.204 155.201 284.022C155.193 283.839 155.038 283.696 154.854 283.704L129.471 284.73C129.286 284.738 129.143 284.891 129.151 285.074C129.159 285.257 129.314 285.398 129.498 285.392Z" fill="#4F4C4D"/>
<path d="M129.587 289.741L154.972 288.715C155.156 288.709 155.299 288.554 155.291 288.371C155.284 288.188 155.129 288.047 154.945 288.054L129.56 289.081C129.376 289.087 129.233 289.242 129.241 289.425C129.248 289.608 129.404 289.749 129.587 289.741Z" fill="#4F4C4D"/>
<path d="M129.678 294.092L155.063 293.064C155.247 293.058 155.389 292.903 155.382 292.72C155.375 292.539 155.219 292.396 155.035 292.404L129.651 293.43C129.467 293.438 129.324 293.591 129.331 293.774C129.339 293.957 129.494 294.099 129.678 294.092Z" fill="#4F4C4D"/>
<path d="M129.768 298.443L155.152 297.415C155.336 297.407 155.479 297.254 155.472 297.071C155.464 296.888 155.309 296.747 155.125 296.754L129.741 297.781C129.557 297.789 129.414 297.942 129.421 298.125C129.428 298.308 129.584 298.449 129.768 298.443Z" fill="#4F4C4D"/>
<path d="M129.858 302.792L155.243 301.766C155.427 301.758 155.57 301.604 155.562 301.422C155.555 301.239 155.4 301.097 155.216 301.104L129.831 302.13C129.647 302.138 129.504 302.291 129.512 302.474C129.519 302.657 129.674 302.799 129.858 302.792Z" fill="#4F4C4D"/>
<path d="M129.948 307.141L155.333 306.115C155.517 306.109 155.66 305.954 155.652 305.771C155.645 305.588 155.489 305.447 155.306 305.454L129.921 306.481C129.737 306.487 129.594 306.642 129.601 306.825C129.609 307.008 129.765 307.149 129.948 307.141Z" fill="#4F4C4D"/>
<path d="M130.039 311.492L155.423 310.466C155.607 310.458 155.75 310.304 155.743 310.122C155.735 309.939 155.58 309.796 155.396 309.804L130.012 310.83C129.828 310.838 129.685 310.991 129.692 311.174C129.699 311.357 129.855 311.5 130.039 311.492Z" fill="#4F4C4D"/>
<path d="M130.129 315.843L155.513 314.815C155.697 314.809 155.84 314.654 155.833 314.471C155.825 314.288 155.67 314.147 155.486 314.154L130.102 315.181C129.918 315.189 129.774 315.342 129.782 315.525C129.79 315.708 129.945 315.849 130.129 315.843Z" fill="#4F4C4D"/>
<path d="M287.635 280.117C287.635 280.117 303.247 282.496 307.19 291.476C311.135 300.455 329.356 343.94 322.715 352.27C316.076 360.6 279.063 363.852 279.063 363.852C279.063 363.852 273.499 361.548 272.276 352.766C271.054 343.986 274.79 342.887 274.79 342.887L298.203 334.662C298.203 334.662 293.633 319.347 288.858 305.599C283.9 291.319 287.635 280.117 287.635 280.117Z" fill="white"/>
<path d="M299.651 335.088L299.693 335.075C299.916 335.001 301.018 334.674 302.951 334.672C305.376 334.674 309.111 335.188 314.067 337.375C314.236 337.449 314.433 337.375 314.507 337.208C314.583 337.04 314.507 336.845 314.339 336.771C309.303 334.548 305.472 334.01 302.951 334.01C300.654 334.01 299.448 334.457 299.416 334.47C299.242 334.535 299.156 334.725 299.221 334.896C299.286 335.067 299.478 335.153 299.651 335.088Z" fill="#4F4C4D"/>
<path d="M293.605 304.492C293.605 304.484 295.319 291.466 295.32 285.585C295.32 285.357 295.318 285.14 295.312 284.935C295.307 284.752 295.155 284.608 294.97 284.612C294.785 284.617 294.64 284.77 294.645 284.952C294.651 285.151 294.653 285.363 294.653 285.585C294.653 288.474 294.227 293.189 293.798 297.17C293.585 299.161 293.37 300.97 293.21 302.282C293.05 303.594 292.943 304.405 292.943 304.406C292.919 304.587 293.047 304.754 293.23 304.778C293.413 304.802 293.581 304.673 293.605 304.492Z" fill="#4F4C4D"/>
<path d="M295.399 361.376C290.97 362.119 286.877 362.655 283.893 363.006C280.908 363.357 279.038 363.521 279.034 363.522L279.063 363.852L279.191 363.546L279.14 363.524C278.587 363.259 273.739 360.825 272.606 352.721C272.437 351.501 272.364 350.433 272.364 349.501C272.365 346.649 273.04 345.074 273.679 344.213C273.999 343.783 274.312 343.529 274.541 343.382L274.807 343.235L274.874 343.207L274.887 343.203L274.866 343.141L274.885 343.203H274.887L274.866 343.141L274.885 343.203L274.902 343.198L294.641 336.264C294.815 336.203 294.905 336.014 294.844 335.842C294.783 335.669 294.592 335.579 294.419 335.64L274.679 342.574L274.79 342.887L274.695 342.569C274.645 342.582 273.882 342.824 273.143 343.821C272.401 344.817 271.697 346.549 271.697 349.501C271.697 350.468 271.773 351.564 271.946 352.813C273.183 361.735 278.873 364.141 278.935 364.157L279.092 364.182C279.098 364.181 286.625 363.52 295.51 362.029C295.691 361.999 295.814 361.828 295.783 361.648C295.753 361.468 295.58 361.346 295.399 361.376Z" fill="#4F4C4D"/>
<path d="M289.551 362.715C289.554 362.7 289.868 360.921 289.868 358.142C289.867 353.513 288.995 346.093 284.306 339.451C284.199 339.301 283.991 339.264 283.84 339.37C283.689 339.475 283.653 339.681 283.759 339.831C288.337 346.309 289.203 353.591 289.201 358.142C289.201 359.507 289.124 360.624 289.047 361.4C289.008 361.787 288.969 362.089 288.941 362.292C288.912 362.496 288.893 362.6 288.893 362.6C288.861 362.78 288.983 362.951 289.164 362.982C289.345 363.014 289.519 362.895 289.551 362.715Z" fill="#4F4C4D"/>
<path d="M283.68 342.975C283.827 343.488 283.248 344.099 282.386 344.342C281.524 344.585 280.708 344.369 280.561 343.857C280.413 343.346 280.993 342.734 281.855 342.491C282.717 342.247 283.533 342.464 283.68 342.975Z" fill="#4F4C4D"/>
<path d="M279.726 354.683C279.634 355.232 279.499 355.772 279.323 356.299C279.184 356.717 279.011 357.142 278.684 357.437C277.505 358.503 273.687 357.32 272.105 357.469C267.775 357.884 263.875 359.727 259.749 360.986C257.501 361.673 255.234 362.364 252.894 362.588C250.801 362.79 248.79 362.887 246.685 362.612C244.193 362.285 241.702 361.959 239.211 361.632C238.428 361.53 237.63 361.423 236.918 361.082C236.207 360.742 235.584 360.122 235.452 359.351C234.607 359.129 233.747 358.902 233.007 358.44C232.269 357.974 231.657 357.23 231.578 356.364C231.56 356.182 231.566 355.988 231.479 355.825C231.406 355.686 231.272 355.585 231.168 355.467C230.793 355.033 230.833 354.358 231.119 353.861C231.404 353.366 231.885 353.014 232.364 352.699C232.114 352.292 232.296 351.747 232.616 351.393C233.053 350.914 233.706 350.674 234.354 350.611C235.001 350.546 235.653 350.639 236.298 350.73C237.55 350.91 238.804 351.089 240.058 351.264C241.037 351.399 242.022 351.535 243.01 351.514C244.922 351.473 246.753 350.847 248.478 350.073C249.285 349.712 250.064 349.28 250.893 348.99C251.392 348.814 252.085 348.588 252.165 347.956C252.259 347.229 251.466 346.716 250.766 346.483C247.93 345.537 244.758 345.976 241.947 344.953C241.512 344.796 241.043 344.552 240.916 344.111C240.696 343.353 241.594 342.779 242.335 342.493C244.97 341.477 247.671 340.448 250.498 340.379C255.346 340.261 260.414 341.743 264.997 343.159C266.83 343.723 268.616 344.43 270.463 344.953C272.249 345.46 273.931 345.261 275.775 345.174C276.112 345.159 276.459 345.145 276.776 345.255C277.254 345.419 277.594 345.834 277.881 346.247C279.565 348.68 280.221 351.777 279.726 354.683Z" fill="#F89B6A"/>
<path d="M232.55 353.096C236.223 354.429 240.077 355.262 243.975 355.564C244.159 355.578 244.319 355.442 244.334 355.259C244.348 355.078 244.211 354.918 244.027 354.905C240.19 354.607 236.394 353.787 232.78 352.474C232.606 352.411 232.416 352.5 232.352 352.671C232.289 352.843 232.377 353.032 232.55 353.096Z" fill="#4F4C4D"/>
<path d="M231.799 356.268C235.949 357.474 240.249 358.168 244.57 358.327C244.754 358.335 244.909 358.192 244.915 358.009C244.923 357.827 244.779 357.673 244.595 357.666C240.329 357.508 236.084 356.823 231.987 355.633C231.81 355.581 231.625 355.682 231.573 355.858C231.522 356.033 231.623 356.217 231.799 356.268Z" fill="#4F4C4D"/>
<path d="M235.895 359.535C239.159 360.276 242.486 360.745 245.83 360.931C246.014 360.942 246.172 360.802 246.181 360.62C246.192 360.438 246.052 360.281 245.868 360.271C242.562 360.085 239.271 359.622 236.044 358.89C235.864 358.849 235.685 358.96 235.644 359.139C235.604 359.316 235.716 359.495 235.895 359.535Z" fill="#4F4C4D"/>
</g>
<path d="M620.069 481.964H437.89C434.505 481.964 431.759 484.687 431.759 488.049V492.24C431.759 495.602 434.505 498.327 437.89 498.327H452.971L456.973 569.399H464.342L468.344 498.327H516.927L520.185 556.159H527.554L530.811 498.327H552.537L556.539 569.399H563.908L567.91 498.327H603.374L606.631 556.159H614.001L617.256 498.327H620.069C623.455 498.327 626.199 495.602 626.199 492.24V488.049C626.199 484.687 623.455 481.964 620.069 481.964Z" fill="#663C2C"/>
<path d="M611.316 333.445H531.171C518.701 333.445 508.592 343.478 508.592 355.855V448.334H633.896V355.855C633.896 343.478 623.787 333.445 611.316 333.445Z" fill="#EAA458"/>
<path d="M513.46 488.121H434.494C425.66 488.121 418.499 481.014 418.499 472.248V445.499C418.499 429.209 431.806 416.002 448.219 416.002H513.46V488.121Z" fill="#F3AF6F"/>
<path d="M602.629 488.121H455.051V469.261C455.051 457.704 464.49 448.334 476.133 448.334H602.629V488.121Z" fill="#EAA458"/>
<path d="M480.748 569.383C477.814 569.428 474.767 569.451 472.106 568.227C469.523 567.04 467.592 564.81 465.201 563.278C463.428 562.142 461.398 561.426 459.309 561.145C458.923 561.454 458.535 561.756 458.142 562.042C453.286 565.574 438.712 570.97 435.968 573.91C433.745 576.289 432.753 580.034 436.011 581.83C441.183 584.683 448.982 584.722 454.681 584.02C461.393 583.194 467.904 579.652 474.633 578.937C478.704 578.504 490.679 579.549 491.017 573.437C491.039 573.032 490.89 571.451 490.669 569.239C490.303 569.239 489.938 569.243 489.573 569.249C486.631 569.294 483.689 569.339 480.748 569.383Z" fill="#EAA458"/>
<path d="M489.356 546.218C490.183 539.997 494.142 529.026 491.827 523.027C485.605 522.458 479.346 522.304 473.103 522.568C472.231 522.605 471.331 522.658 470.555 523.054C467.461 524.629 469.474 535.542 469.322 538.858C469.133 542.98 468.854 547.18 467.312 551.011C465.679 555.068 462.64 558.497 459.314 561.141L459.309 561.145C461.398 561.426 463.428 562.142 465.201 563.278C467.592 564.81 469.523 567.04 472.106 568.227C474.767 569.451 477.814 569.428 480.748 569.383C483.689 569.339 486.631 569.294 489.573 569.249C489.938 569.243 490.303 569.239 490.669 569.239C490.585 568.397 490.491 567.471 490.392 566.472C489.725 559.768 488.833 550.159 489.356 546.218Z" fill="#B8643F"/>
<path d="M431.516 557.515C428.584 557.56 425.536 557.581 422.875 556.358C420.292 555.171 418.36 552.942 415.97 551.41C414.198 550.274 412.168 549.558 410.079 549.277C409.692 549.585 409.304 549.887 408.912 550.173C404.055 553.706 389.479 559.103 386.737 562.042C384.516 564.421 383.52 568.165 386.781 569.962C391.953 572.815 399.75 572.854 405.45 572.152C412.16 571.325 418.674 567.784 425.401 567.069C429.474 566.636 441.447 567.681 441.785 561.57C441.808 561.164 441.659 559.584 441.437 557.37C441.072 557.372 440.706 557.376 440.341 557.38C437.399 557.426 434.458 557.471 431.516 557.515Z" fill="#EAA458"/>
<path d="M440.126 534.35C440.952 528.129 444.912 517.159 442.597 511.159C436.375 510.591 430.114 510.436 423.871 510.701C423 510.737 422.098 510.79 421.323 511.184C418.23 512.761 420.243 523.673 420.091 526.99C419.901 531.112 419.624 535.311 418.082 539.143C416.447 543.2 413.41 546.629 410.084 549.273L410.079 549.277C412.168 549.558 414.198 550.274 415.97 551.41C418.36 552.942 420.292 555.171 422.875 556.358C425.536 557.581 428.584 557.56 431.516 557.515C434.458 557.471 437.399 557.426 440.341 557.38C440.706 557.376 441.072 557.372 441.437 557.37C441.353 556.529 441.261 555.603 441.16 554.604C440.493 547.9 439.602 538.29 440.126 534.35Z" fill="#B8643F"/>
<path d="M430.213 451.561C432.48 447.677 436.615 444.701 440.269 442.226C452.534 433.922 467.157 428.765 481.403 424.996C484.826 424.09 488.273 423.268 491.741 422.55C494.065 422.071 496.826 422.576 498.49 420.662C500.383 418.483 501.343 414.555 501.93 411.813C501.968 411.637 502.014 411.447 502.157 411.337C502.282 411.242 502.452 411.234 502.608 411.23C519.958 410.739 538.136 412.423 555.054 416.607C556.109 416.869 557.225 417.18 557.95 417.983C558.828 418.953 558.908 420.374 558.943 421.677C559.127 428.543 560.051 435.813 558.912 442.589C556.173 458.906 541.693 463.045 527.62 467.532C517.505 470.759 499.061 474.127 499.061 474.127L491.46 551.803C491.46 551.803 488.113 558.777 473.68 558.777C459.249 558.777 461.95 551.737 461.95 551.737C461.95 551.737 464.59 471.121 465.168 465.676C464.154 465.784 458.795 466.049 457.81 466.132C460.63 473.383 442.015 545.047 442.015 545.047C442.015 545.047 435.616 552.029 424.809 549.862C414.001 547.696 414.001 541.284 414.001 541.284C414.001 541.284 426.598 457.754 430.213 451.561Z" fill="#524643"/>
<path d="M465.484 465.709C465.641 464.239 466.026 462.821 466.718 461.484C468.735 457.582 472.674 454.42 476.193 451.774C484.147 445.784 493.255 441.16 502.649 437.414C502.82 437.345 502.903 437.153 502.833 436.982C502.765 436.812 502.57 436.73 502.4 436.799C492.97 440.561 483.808 445.208 475.79 451.245C472.262 453.905 468.241 457.103 466.126 461.181C465.391 462.6 464.985 464.101 464.821 465.639C464.802 465.821 464.934 465.984 465.118 466.003C465.301 466.023 465.465 465.89 465.484 465.709Z" fill="#4F4C4D"/>
<path d="M552.203 423.971C551.802 430.882 551.25 438.041 547.7 443.879C543.323 451.096 535.127 455.11 527.226 458.523C522.084 460.746 514.244 463.811 507.693 466.318C504.418 467.572 501.465 468.686 499.329 469.487C497.195 470.288 495.882 470.774 495.878 470.776C495.756 470.821 495.674 470.931 495.663 471.059C495.662 471.067 495.447 473.687 495.055 478.287C493.876 492.083 491.102 523.623 487.77 555.173C487.751 555.354 487.885 555.517 488.067 555.537C488.25 555.555 488.414 555.423 488.434 555.242C492.876 513.166 496.327 471.115 496.327 471.113L495.995 471.087L496.111 471.397C496.115 471.395 517.173 463.593 527.492 459.13C535.403 455.706 543.746 451.661 548.272 444.22C551.927 438.196 552.463 430.925 552.869 424.009C552.88 423.827 552.74 423.67 552.555 423.66C552.371 423.649 552.214 423.788 552.203 423.971Z" fill="#4F4C4D"/>
<path d="M548.96 441.632C548.192 441.538 547.524 441.149 546.929 440.585C546.336 440.023 545.828 439.292 545.401 438.563C542.961 434.4 541.661 429.583 541.661 424.767C541.661 424.331 541.671 423.897 541.693 423.461C541.702 423.28 541.561 423.124 541.376 423.116C541.192 423.106 541.036 423.247 541.027 423.429C541.006 423.876 540.994 424.321 540.995 424.767C540.995 429.701 542.324 434.629 544.825 438.896C545.27 439.655 545.805 440.435 546.468 441.064C547.129 441.691 547.929 442.173 548.88 442.289C549.063 442.311 549.228 442.181 549.251 442C549.274 441.819 549.143 441.653 548.96 441.632Z" fill="#4F4C4D"/>
<path d="M465.843 460.549C462.102 462.208 458.362 463.867 454.621 465.526L454.425 465.794C453.775 472.1 449.52 492.691 445.431 511.667C443.388 521.159 441.384 530.254 439.891 536.976C439.145 540.337 438.526 543.104 438.096 545.033C437.663 546.96 437.418 548.043 437.418 548.047C437.378 548.225 437.491 548.402 437.67 548.441C437.85 548.481 438.029 548.37 438.069 548.191C438.069 548.19 441.994 530.793 446.084 511.805C450.174 492.812 454.426 472.257 455.089 465.862L454.757 465.828L454.893 466.13C458.634 464.471 462.374 462.812 466.115 461.153C466.283 461.079 466.359 460.883 466.283 460.716C466.208 460.549 466.011 460.475 465.843 460.549Z" fill="#4F4C4D"/>
<path d="M498.391 472.722C493.439 469.805 488.186 467.394 482.739 465.541C482.566 465.481 482.376 465.574 482.316 465.746C482.256 465.919 482.35 466.107 482.523 466.167C487.926 468.006 493.139 470.397 498.051 473.291C498.21 473.384 498.414 473.332 498.509 473.176C498.602 473.019 498.55 472.815 498.392 472.722" fill="#4F4C4D"/>
<path d="M458.602 468.652C454.14 466.207 449.368 464.316 444.435 463.041C444.256 462.995 444.075 463.1 444.028 463.278C443.981 463.454 444.088 463.635 444.267 463.682C449.146 464.942 453.866 466.813 458.28 469.231C458.442 469.319 458.645 469.261 458.733 469.101C458.822 468.942 458.763 468.739 458.602 468.652Z" fill="#4F4C4D"/>
<path d="M499.904 438.213C499.979 433.992 500.906 429.785 502.613 425.917L502.748 425.729L502.812 425.682L502.819 425.678L502.797 425.605L502.799 425.68L502.819 425.678L502.797 425.605L502.799 425.68V425.566L502.708 425.645L502.799 425.68V425.566L502.708 425.645C502.831 425.781 503.041 425.794 503.179 425.674C503.318 425.552 503.33 425.343 503.208 425.206C503.111 425.09 502.944 425.014 502.799 425.018C502.563 425.025 502.412 425.139 502.288 425.25C502.165 425.368 502.069 425.504 502.004 425.651C500.259 429.599 499.313 433.892 499.237 438.201C499.233 438.384 499.38 438.535 499.564 438.539C499.748 438.542 499.9 438.396 499.904 438.213Z" fill="#4F4C4D"/>
<path d="M503.016 437.106C504.714 433.473 506.673 429.962 508.872 426.604C508.972 426.451 508.928 426.246 508.775 426.146C508.62 426.046 508.413 426.089 508.313 426.243C506.096 429.627 504.123 433.166 502.41 436.828C502.333 436.994 502.406 437.191 502.573 437.268C502.74 437.345 502.939 437.273 503.016 437.106Z" fill="#4F4C4D"/>
<path d="M490.807 401.279C490.151 402.48 489.496 403.682 488.84 404.883C487.138 407.996 485.303 411.776 482.418 414C479.718 416.084 475.749 416.844 472.596 418.226C470.376 419.199 468.14 420.18 466.164 421.575C464.395 422.822 462.764 424.094 461.31 425.721C459.592 427.645 457.872 429.57 456.154 431.495C455.612 432.099 455.063 432.719 454.741 433.461C454.418 434.203 454.354 435.103 454.777 435.793C454.269 436.533 453.754 437.286 453.494 438.144C453.233 439.001 453.265 439.991 453.792 440.718C453.902 440.872 454.04 441.02 454.082 441.205C454.12 441.363 454.084 441.529 454.084 441.693C454.086 442.282 454.579 442.782 455.139 442.977C455.698 443.172 456.311 443.123 456.9 443.047C456.982 443.53 457.495 443.836 457.984 443.895C458.65 443.975 459.324 443.725 459.872 443.341C460.42 442.957 460.864 442.447 461.303 441.943C462.158 440.963 463.013 439.983 463.873 439.006C464.542 438.244 465.217 437.478 466.002 436.832C467.518 435.582 469.371 434.842 471.242 434.288C472.118 434.027 473.017 433.843 473.862 433.513C474.37 433.314 475.065 433.027 475.557 433.465C476.123 433.97 475.856 434.899 475.469 435.551C473.903 438.189 471.133 439.977 469.638 442.655C469.407 443.071 469.207 443.574 469.407 444.004C469.753 444.742 470.843 444.587 471.616 444.313C474.36 443.338 477.167 442.33 479.415 440.487C483.273 437.328 486.213 432.776 488.821 428.598C494.561 419.406 501.261 410.841 506.918 401.594C509.91 396.709 512.05 392.421 513.132 386.812C514.246 381.036 514.875 375.182 515.498 369.337C516.147 363.235 516.786 357.101 516.46 350.974C516.432 350.457 516.376 349.896 516.012 349.528C515.681 349.195 515.18 349.112 514.713 349.054C511.528 348.653 508.293 348.658 505.11 349.068C504.462 349.152 503.794 349.259 503.244 349.613C502.04 350.384 501.809 352.006 501.694 353.426C500.947 362.711 500.2 371.997 499.453 381.284C499.318 382.961 499.181 384.655 498.678 386.263C498.232 387.687 497.512 389.009 496.796 390.32C494.799 393.973 492.803 397.626 490.807 401.279Z" fill="#B8643F"/>
<path d="M457.368 442.939C459.292 439.492 461.691 436.307 464.477 433.501C464.606 433.37 464.605 433.161 464.474 433.032C464.342 432.904 464.131 432.905 464.002 433.036C461.174 435.886 458.738 439.119 456.784 442.618C456.696 442.777 456.753 442.98 456.914 443.068C457.076 443.156 457.279 443.099 457.368 442.939Z" fill="#4F4C4D"/>
<path d="M454.6 441.008C456.982 437.334 459.824 433.951 463.041 430.967C463.175 430.843 463.183 430.632 463.058 430.5C462.931 430.366 462.72 430.358 462.585 430.484C459.328 433.505 456.452 436.93 454.038 440.651C453.94 440.804 453.984 441.01 454.138 441.108C454.294 441.207 454.5 441.163 454.6 441.008Z" fill="#4F4C4D"/>
<path d="M455.543 435.749C457.56 433.014 459.809 430.447 462.258 428.086C462.391 427.959 462.395 427.748 462.265 427.617C462.137 427.486 461.926 427.484 461.794 427.611C459.317 429.998 457.044 432.593 455.005 435.359C454.896 435.507 454.929 435.714 455.078 435.822C455.226 435.929 455.435 435.898 455.543 435.749Z" fill="#4F4C4D"/>
<path d="M494.198 360.705C495.807 353.987 498.662 347.617 501.658 341.287C502.985 338.484 504.411 335.675 506.527 333.4C513.528 325.872 523.422 324.769 533.068 325.052C538.695 325.218 544.329 325.528 549.904 326.339C554.371 326.991 559.352 327.2 563.628 328.626C571.969 331.406 578.414 338.581 581.877 346.426C586.23 356.289 586.759 367.332 587.225 378.089C587.252 378.703 587.266 379.361 586.927 379.877C586.554 380.446 585.847 380.688 585.19 380.883C576.938 383.327 568.225 384.238 559.64 383.552C559.306 388.784 560.03 394.083 559.978 399.387C559.961 401.709 560.039 404.287 561.657 405.965C562.171 406.497 562.846 406.952 563.035 407.665C563.534 409.554 560.366 410.589 560.215 412.537C561.729 413.351 562.082 415.699 560.873 416.917C560.453 417.339 559.849 417.728 559.869 418.321C559.885 418.769 560.262 419.108 560.478 419.5C561.89 422.063 551.747 425.233 549.998 426.255C546.513 428.294 542.749 429.699 538.822 430.726C530.755 432.84 522.199 433.165 514.014 431.531C511.26 430.982 508.519 430.207 506.092 428.804C503.395 427.243 500.023 424.131 499.058 421.097C498.387 418.983 497.91 414.847 499.871 413.333C500.401 412.922 501.094 412.667 501.426 412.084C501.661 411.675 501.667 411.179 501.655 410.705C501.615 409.177 501.439 407.651 501.134 406.153C500.91 405.062 500.614 403.961 500.708 402.853C500.839 401.312 501.699 399.942 502.454 398.59C506.863 390.678 506.951 384.145 506.282 375.354C506.232 374.704 506.168 374.013 505.776 373.49C505.428 373.027 504.88 372.768 504.353 372.526C501.111 371.039 497.87 369.551 494.629 368.062C494.098 367.82 493.523 367.533 493.299 366.997C493.142 366.622 493.191 366.198 493.245 365.796C493.474 364.076 493.797 362.379 494.198 360.705Z" fill="#4E99C3"/>
<path d="M553.449 330.523C553.276 333.702 541.746 347.212 530.438 345.295C519.131 343.378 523.169 333.894 525.777 330.413C528.385 326.932 533.426 325.525 540.509 325.904C547.594 326.282 553.621 327.344 553.449 330.523Z" fill="#B8643F"/>
<path d="M561.235 383.642C561.203 384.615 561.169 385.587 561.137 386.56C560.997 390.753 561.584 395.547 559.978 399.521C559.817 399.923 559.639 400.319 559.428 400.703C558.11 403.105 556.2 405.124 554.311 407.115C549.502 412.183 544.692 417.254 539.727 422.17C538.863 423.027 537.992 423.878 537.119 424.724C534.499 427.258 531.426 430.227 527.947 431.55C524.531 432.851 520.798 431.816 517.193 431.858C516.814 431.862 516.434 431.87 516.055 431.875C514.006 431.91 511.953 431.996 509.953 432.426C507.833 432.882 505.828 433.416 503.847 434.345C501.505 435.443 499.161 436.542 496.817 437.641C496.081 437.987 495.332 438.34 494.741 438.896C494.15 439.454 493.736 440.258 493.852 441.056C493.09 441.536 492.317 442.029 491.739 442.716C491.16 443.403 490.795 444.326 490.993 445.2C491.034 445.385 491.101 445.573 491.068 445.761C491.038 445.922 490.939 446.059 490.875 446.21C490.645 446.752 490.899 447.403 491.337 447.802C491.775 448.2 492.356 448.393 492.927 448.554C492.811 449.03 493.162 449.511 493.589 449.756C494.17 450.091 494.888 450.123 495.544 449.984C496.201 449.845 496.81 449.549 497.413 449.257C498.589 448.69 499.763 448.123 500.939 447.559C503.013 446.566 504.335 445.927 506.611 446.351C509.237 446.842 511.817 447.542 514.43 448.088C517.853 448.801 521.4 449.251 524.84 448.632C528.493 447.972 531.149 445.878 533.824 443.578C537.041 440.814 540.847 438.644 544.357 436.211C551.679 431.136 558.785 425.752 565.649 420.08C569.723 416.712 573.938 412.967 576.301 408.158C579.081 402.5 579.344 394.209 580.284 387.965C580.584 385.962 580.856 383.953 581.106 381.943C574.608 383.447 567.897 384.021 561.235 383.642Z" fill="#B8643F"/>
<path d="M493.401 448.637C496.536 446.218 500.003 444.227 503.678 442.735C503.847 442.665 503.93 442.471 503.859 442.303C503.79 442.134 503.595 442.053 503.424 442.122C499.694 443.636 496.174 445.658 492.991 448.114C492.846 448.227 492.819 448.435 492.932 448.579C493.046 448.723 493.255 448.748 493.401 448.637Z" fill="#4F4C4D"/>
<path d="M491.621 445.781C495.267 443.333 499.219 441.331 503.36 439.843C503.532 439.781 503.623 439.59 503.56 439.419C503.496 439.247 503.306 439.159 503.132 439.221C498.941 440.729 494.939 442.753 491.248 445.233C491.094 445.336 491.055 445.542 491.158 445.693C491.261 445.845 491.469 445.885 491.621 445.781Z" fill="#4F4C4D"/>
<path d="M494.572 441.315C497.511 439.586 500.594 438.103 503.783 436.889C503.954 436.823 504.041 436.632 503.974 436.462C503.909 436.291 503.715 436.205 503.543 436.271C500.32 437.5 497.203 438.998 494.232 440.745C494.073 440.839 494.021 441.041 494.116 441.199C494.209 441.356 494.413 441.408 494.572 441.315Z" fill="#4F4C4D"/>
<path d="M512.479 413.498C516.148 414.933 520.077 415.63 524.009 415.63C531.376 415.63 538.759 413.187 544.482 408.552C544.623 408.435 544.645 408.227 544.529 408.086C544.413 407.944 544.202 407.923 544.059 408.038C538.468 412.57 531.227 414.969 524.009 414.968C520.157 414.969 516.309 414.285 512.725 412.882C512.553 412.815 512.359 412.898 512.293 413.068C512.225 413.239 512.309 413.431 512.479 413.498Z" fill="#4F4C4D"/>
<path d="M512.478 406.713C515.568 409.946 520.046 411.741 524.515 411.743C526.068 411.743 527.619 411.525 529.112 411.074C529.288 411.021 529.387 410.837 529.333 410.661C529.28 410.486 529.093 410.388 528.917 410.441C527.491 410.873 526.005 411.081 524.515 411.081C520.225 411.082 515.912 409.349 512.961 406.257C512.834 406.125 512.624 406.118 512.49 406.244C512.357 406.37 512.351 406.58 512.478 406.713Z" fill="#4F4C4D"/>
<path d="M558.927 381.329C558.25 381.122 557.574 380.916 556.898 380.708L556.799 381.024L557.124 380.952C556.172 376.794 555.697 372.531 555.697 368.266C555.697 362.715 556.501 357.165 558.102 351.846C558.154 351.671 558.054 351.487 557.878 351.434C557.702 351.383 557.515 351.482 557.463 351.657C555.844 357.038 555.03 362.653 555.03 368.266C555.03 372.579 555.51 376.892 556.473 381.099L556.7 381.341C557.378 381.547 558.054 381.755 558.731 381.962C558.907 382.016 559.093 381.918 559.147 381.743C559.201 381.569 559.103 381.383 558.927 381.329Z" fill="#4F4C4D"/>
<path d="M562.164 342.974C563.368 340.397 565.489 338.245 568.057 336.991C568.222 336.91 568.29 336.711 568.209 336.549C568.127 336.384 567.928 336.317 567.763 336.398C565.055 337.719 562.83 339.978 561.559 342.695C561.481 342.86 561.553 343.057 561.721 343.134C561.888 343.211 562.087 343.139 562.164 342.974Z" fill="#4F4C4D"/>
<path d="M510.903 340.53C510.833 338.46 510.763 336.394 510.692 334.324C510.687 334.142 510.532 333.999 510.348 334.005C510.164 334.011 510.02 334.164 510.026 334.347C510.096 336.416 510.166 338.483 510.236 340.551C510.241 340.734 510.396 340.878 510.58 340.871C510.764 340.865 510.908 340.713 510.903 340.53Z" fill="#4F4C4D"/>
<path d="M505.892 372.4C506.367 369.161 506.973 365.941 507.714 362.752C507.756 362.573 507.644 362.396 507.464 362.355C507.285 362.314 507.105 362.425 507.063 362.604C506.319 365.81 505.709 369.049 505.232 372.305C505.207 372.486 505.332 372.654 505.515 372.681C505.697 372.707 505.866 372.581 505.892 372.4Z" fill="#4F4C4D"/>
<path d="M561.815 239.902C557.283 237.153 551.822 236.355 546.514 236.195C544.577 236.136 542.637 236.154 540.698 236.172C537.32 236.204 533.945 236.234 530.593 235.862C525.314 235.276 519.942 233.556 516.212 229.804C515.649 234.093 517.271 238.61 520.441 241.578C510.032 244.59 502.691 254.222 499.348 264.459C497.4 270.424 496.563 276.9 498.103 282.981C499.642 289.062 503.82 294.673 509.706 296.95C513.887 298.567 518.509 298.428 522.987 298.707C527.466 298.987 532.224 299.854 535.45 302.949C537.804 305.21 539.021 308.353 540.552 311.224C542.369 314.63 544.804 317.846 548.172 319.758C552.375 322.145 558.236 322.394 562.603 320.294C559.766 318.623 559.184 314.051 561.014 311.382C562.707 313.8 565.96 315.027 568.842 314.332C566.593 311.681 566.856 307.631 568.391 304.52C569.928 301.407 572.5 298.947 574.78 296.32C578.498 292.032 581.55 287.095 583.121 281.657C584.694 276.219 584.717 270.255 582.608 264.998C580.336 259.338 575.972 255.414 571.428 251.55C567.51 248.222 566.342 242.651 561.815 239.902Z" fill="#2B2422"/>
<path d="M550.03 328.096C550.03 331.843 548.307 335.258 539.593 335.258C530.877 335.258 529.153 331.964 529.153 328.096C529.153 324.229 527.871 309.407 527.871 309.407H551.312C551.312 309.407 550.03 324.349 550.03 328.096Z" fill="#B8643F"/>
<mask id="mask8_2_4" style="mask-type:luminance" maskUnits="userSpaceOnUse" x="527" y="309" width="25" height="27">
<path d="M550.03 328.096C550.03 331.843 548.307 335.258 539.593 335.258C530.877 335.258 529.153 331.964 529.153 328.096C529.153 324.229 527.871 309.407 527.871 309.407H551.312C551.312 309.407 550.03 324.349 550.03 328.096Z" fill="white"/>
</mask>
<g mask="url(#mask8_2_4)">
<path d="M533.549 325.169C531.992 325.169 530.477 325.001 529.021 324.682C528.984 324.02 528.94 323.309 528.89 322.57C529.365 322.588 529.839 322.598 530.314 322.598C533.323 322.598 536.353 322.232 539.306 321.664C543.222 320.91 546.829 319.212 550.061 316.924C546.444 321.905 540.399 325.169 533.549 325.169Z" fill="#9C462A"/>
</g>
<path d="M567.024 283.111C567.147 273.808 564.59 264.44 559.342 257.273C554.295 250.377 546.544 246.302 537.344 246.049C528.145 245.798 521.017 248.676 515.321 254.187C509.043 260.258 505.962 269.285 506.699 277.955C507.022 281.759 508.029 285.487 508.223 289.298C508.572 296.193 506.28 303.355 508.571 309.873C510.546 315.494 515.762 319.597 521.493 321.358C527.224 323.121 533.417 322.799 539.306 321.664C547.65 320.056 554.59 314.17 559.499 307.397C564.397 300.639 566.908 291.905 567.024 283.111Z" fill="#B8643F"/>
<path d="M525.625 283.267C525.694 283.898 525.727 284.533 525.727 285.168C525.727 287.81 525.138 290.455 524.004 292.845C523.269 294.408 522.216 296.03 522.208 297.9L522.218 298.179C522.298 299.526 522.999 300.807 524.095 301.607C524.891 302.187 525.87 302.493 526.851 302.493C527.221 302.493 527.591 302.449 527.952 302.359C528.131 302.314 528.239 302.135 528.195 301.958C528.15 301.78 527.97 301.672 527.791 301.717C527.484 301.794 527.168 301.831 526.851 301.831C526.009 301.831 525.163 301.566 524.489 301.073C523.56 300.398 522.949 299.282 522.883 298.139L522.875 297.9C522.869 296.294 523.836 294.738 524.608 293.127C525.785 290.646 526.394 287.908 526.394 285.168C526.394 284.509 526.36 283.851 526.288 283.195C526.269 283.014 526.104 282.883 525.921 282.901C525.738 282.921 525.606 283.085 525.625 283.267Z" fill="#4F4C4D"/>
<path d="M526.788 308.816C527.294 308.87 527.802 308.897 528.309 308.897C531.777 308.897 535.234 307.642 537.86 305.386C538 305.266 538.015 305.057 537.895 304.92C537.774 304.781 537.563 304.766 537.424 304.885C534.925 307.034 531.614 308.236 528.309 308.235C527.825 308.235 527.342 308.21 526.86 308.158C526.677 308.138 526.513 308.269 526.493 308.451C526.473 308.632 526.605 308.796 526.788 308.816Z" fill="#4F4C4D"/>
<path d="M531.085 312.319L531.29 312.322C532.61 312.322 533.92 311.92 535.007 311.178C535.159 311.074 535.197 310.868 535.092 310.717C534.988 310.566 534.781 310.529 534.629 310.633C533.655 311.297 532.472 311.661 531.29 311.66L531.106 311.657C530.922 311.652 530.769 311.795 530.763 311.978C530.757 312.161 530.901 312.314 531.085 312.319Z" fill="#4F4C4D"/>
<path d="M541.908 289.747C541.908 291.376 540.578 292.696 538.935 292.696C537.296 292.696 535.965 291.376 535.965 289.747C535.965 288.118 537.296 286.798 538.935 286.798C540.578 286.798 541.908 288.118 541.908 289.747Z" fill="#2B2422"/>
<path d="M522.542 289.747C522.542 291.376 521.212 292.696 519.571 292.696C517.929 292.696 516.599 291.376 516.599 289.747C516.599 288.118 517.929 286.798 519.571 286.798C521.212 286.798 522.542 288.118 522.542 289.747Z" fill="#2B2422"/>
<path d="M553.068 300C553.068 303.364 550.32 306.093 546.929 306.093C543.538 306.093 540.79 303.364 540.79 300C540.79 296.634 543.538 293.905 546.929 293.905C550.32 293.905 553.068 296.634 553.068 300Z" fill="#AC4C40"/>
<path d="M520.72 300C520.72 303.364 517.972 306.093 514.581 306.093C511.191 306.093 508.44 303.364 508.44 300C508.44 296.634 511.191 293.905 514.581 293.905C517.972 293.905 520.72 296.634 520.72 300Z" fill="#AC4C40"/>
<path d="M540.285 274.637C536.365 273.23 533.595 275.422 533.265 277.58C533.265 277.58 535.702 276.782 539.406 277.338C543.111 277.893 546.116 279.507 546.116 279.507C546.116 279.507 544.21 276.046 540.285 274.637Z" fill="#2B2422"/>
<path d="M516.85 274.637C520.77 273.23 523.54 275.422 523.868 277.58C523.868 277.58 521.433 276.782 517.729 277.338C514.024 277.893 511.019 279.507 511.019 279.507C511.019 279.507 512.925 276.046 516.85 274.637Z" fill="#2B2422"/>
<path d="M560.182 280.178C557.757 277.075 554.654 273.963 554.625 270.036C553.568 274.25 554.454 278.904 556.987 282.446C550.386 276.628 546.022 268.371 544.949 259.673C540.051 265.973 532.075 269.795 524.057 269.683C526.792 267.135 528.641 263.668 529.223 259.99C525.998 265.607 520.117 269.08 515.142 273.256C512.689 275.318 510.423 277.595 508.365 280.048C508.152 280.304 504.082 285.199 503.975 284.778C498.907 264.732 513.907 245.195 533.373 240.332C546.458 237.062 559.2 243.937 567.039 254.257C573.181 262.344 576.297 275.576 570.791 284.726C569.641 286.638 566.775 290.99 564.148 289.057C562.914 288.15 563.109 285.961 562.674 284.652C562.138 283.033 561.231 281.521 560.182 280.178Z" fill="#2B2422"/>
<path d="M572.284 293.793C569.929 300.083 564.153 303.841 561.257 302.442C559.008 301.358 558.655 297.17 559.963 292.147C561.273 287.122 565.056 280.731 568.873 281.686C572.69 282.641 574.641 287.505 572.284 293.793Z" fill="#B8643F"/>
<path d="M565.497 298.029C565.12 297.377 564.778 296.794 564.009 296.525C563.764 296.438 563.505 296.396 563.245 296.396C562.749 296.396 562.252 296.549 561.854 296.842C562.104 294.13 563.037 291.484 564.546 289.209C565.667 287.517 567.162 285.993 569.053 285.232C569.249 285.152 569.424 285.116 569.579 285.116C570.559 285.116 570.782 286.533 570.791 287.451C570.813 289.486 570.323 291.514 569.421 293.339C568.653 294.896 567.182 297.33 565.497 298.029Z" fill="#9C462A"/>
<path d="M617.901 488.121H538.935V445.499C538.935 429.209 552.242 416.002 568.655 416.002H633.896V472.248C633.896 481.014 626.735 488.121 617.901 488.121Z" fill="#F3AF6F"/>
<path d="M427.53 172.341H342.983C333.974 172.341 326.673 179.587 326.673 188.528V236.424C326.673 245.365 333.974 252.611 342.983 252.611H353.706C353.243 262.189 345.579 269.292 345.579 269.292C360.586 269.902 371.04 258.956 375.811 252.611H427.53C436.539 252.611 443.84 245.365 443.84 236.424V188.528C443.84 179.587 436.539 172.341 427.53 172.341Z" fill="#EAA458"/>
<path d="M359.772 198.882H413.674C414.042 198.882 414.341 198.585 414.341 198.22C414.341 197.854 414.042 197.558 413.674 197.558H359.772C359.404 197.558 359.105 197.854 359.105 198.22C359.105 198.585 359.404 198.882 359.772 198.882Z" fill="white"/>
<path d="M353.032 212.083H420.415C420.783 212.083 421.082 211.787 421.082 211.421C421.082 211.055 420.783 210.759 420.415 210.759H353.032C352.664 210.759 352.365 211.055 352.365 211.421C352.365 211.787 352.664 212.083 353.032 212.083Z" fill="white"/>
<path d="M359.772 225.285H413.674C414.042 225.285 414.341 224.988 414.341 224.623C414.341 224.258 414.042 223.961 413.674 223.961H359.772C359.404 223.961 359.105 224.258 359.105 224.623C359.105 224.988 359.404 225.285 359.772 225.285Z" fill="white"/>
<path d="M518.829 102.279H463.845C450.725 102.279 440.091 112.835 440.091 125.855C440.091 138.877 450.725 149.432 463.845 149.432H465.788C465.327 159.01 457.663 166.111 457.663 166.111C470.793 166.646 480.439 158.332 485.842 151.995C487.243 150.352 489.325 149.432 491.496 149.432H518.829C531.948 149.432 542.584 138.877 542.584 125.855C542.584 112.835 531.948 102.279 518.829 102.279Z" fill="#4E99C3"/>
<path d="M479.714 126.243C479.714 128.414 477.941 130.174 475.752 130.174C473.565 130.174 471.791 128.414 471.791 126.243C471.791 124.072 473.565 122.312 475.752 122.312C477.941 122.312 479.714 124.072 479.714 126.243Z" fill="#231F20"/>
<path d="M497.299 126.243C497.299 128.414 495.524 130.174 493.338 130.174C491.15 130.174 489.377 128.414 489.377 126.243C489.377 124.072 491.15 122.312 493.338 122.312C495.524 122.312 497.299 124.072 497.299 126.243Z" fill="#231F20"/>
<path d="M514.883 126.243C514.883 128.414 513.11 130.174 510.923 130.174C508.736 130.174 506.963 128.414 506.963 126.243C506.963 124.072 508.736 122.312 510.923 122.312C513.11 122.312 514.883 124.072 514.883 126.243Z" fill="#231F20"/>
<path d="M220.522 478.661C220.522 497.686 204.984 513.108 185.816 513.108C166.649 513.108 151.11 497.686 151.11 478.661C151.11 459.638 166.649 444.216 185.816 444.216C204.984 444.216 220.522 459.638 220.522 478.661Z" fill="#4E99C3"/>
<path d="M198.214 490.551H167.913V466.773H198.214V490.551Z" fill="white"/>
<path d="M209.057 487.023V470.302L193.932 478.68L209.057 487.023Z" fill="white"/>
</svg>
